<?xml version="1.0" encoding="UTF-8"?><!DOCTYPE svg PUBLIC "-//W3C//DTD SVG 1.1//EN" "http://www.w3.org/Graphics/SVG/1.1/DTD/svg11.dtd"><svg xmlns="http://www.w3.org/2000/svg"><defs><clipPath id="clip0"><path fill="#fff" d="M0 0h32.9v20.4H0z"/></clipPath><clipPath id="clip0"><path fill="#fff" d="M0 0h26.8v19.5H0z"/></clipPath></defs><symbol id="icon--balloon" viewBox="0 0 34 32"><path d="M26.555 0H7.445C3.377 0 0 3.32 0 7.32v8.906c0 4 3.377 7.321 7.445 7.321h.997v8.528c1.382-.754 6.064-5.132 9.594-8.528h8.52c4.067 0 7.444-3.32 7.444-7.32V7.32C34 3.32 30.623 0 26.555 0z" fill="#fff"/></symbol><symbol id="icon--bitcoin" viewBox="0 0 14 24"><path fill-rule="evenodd" clip-rule="evenodd" d="M3 0h2v2.938h1.5c.17 0 .337.002.5.008V0h2v3.182c.887.197 1.624.514 2.21.95 1.071.79 1.606 1.95 1.606 3.481 0 .836-.214 1.574-.644 2.215-.43.633-1.027 1.098-1.793 1.395.875.218 1.562.66 2.062 1.324.508.664.762 1.476.762 2.437 0 1.641-.523 2.883-1.57 3.727-.686.553-1.564.928-2.633 1.125V23H7v-3H5v4H3v-4H.523V2.937H3V0zm1.04 12.57v4.606h3.01c.829 0 1.473-.195 1.934-.586.47-.399.704-.945.704-1.64 0-1.563-.81-2.356-2.426-2.38H4.039zm0-2.484h2.6c1.774-.031 2.66-.738 2.66-2.121 0-.774-.226-1.328-.679-1.664-.445-.344-1.152-.516-2.121-.516H4.04v4.3z" fill="#39DEE4"/></symbol><symbol id="icon--dolar" viewBox="0 0 12 23"><path opacity=".9" d="M8.258 15.512c0-.64-.18-1.149-.54-1.524-.35-.383-.952-.734-1.804-1.054a22.327 22.327 0 0 1-2.203-.95 7.418 7.418 0 0 1-1.594-1.09 4.56 4.56 0 0 1-1.031-1.453C.844 8.887.723 8.227.723 7.461c0-1.32.422-2.402 1.265-3.246.844-.844 1.965-1.336 3.364-1.477V.23h1.875v2.543c1.382.196 2.464.774 3.246 1.735.78.953 1.171 2.191 1.171 3.715H8.259c0-.938-.195-1.637-.586-2.098-.383-.469-.899-.703-1.547-.703-.64 0-1.137.183-1.488.55-.352.36-.528.86-.528 1.5 0 .594.172 1.071.516 1.43.344.36.98.727 1.91 1.102.938.375 1.707.73 2.309 1.066.601.328 1.11.703 1.523 1.125.414.414.73.89.95 1.43.218.531.328 1.152.328 1.863 0 1.328-.415 2.407-1.243 3.235-.828.828-1.968 1.316-3.422 1.465v2.332H5.117V20.2c-1.601-.173-2.844-.74-3.726-1.7-.875-.969-1.313-2.254-1.313-3.855h3.387c0 .93.219 1.644.656 2.144.445.492 1.082.738 1.91.738.688 0 1.23-.18 1.63-.539.398-.367.597-.86.597-1.476z" fill="#4CB650"/></symbol><symbol id="icon--ethereum" viewBox="0 0 15 25"><path fill-rule="evenodd" clip-rule="evenodd" d="M7.397 0l6.821 12.109-6.836 3.952L0 12.122 7.397 0zM3.803 11.751L7.34 13.64l3.267-1.888-3.265-1.753-3.54 1.753zM10.07 9.06L7.38 7.616 4.3 9.142l3.024-4.957 2.746 4.874zM.66 15.836l1.327-1.593 5.353 2.856 4.912-2.839 1.383 1.543-6.24 8.503-6.736-8.47zm4.835 2.679l1.832 2.304 1.615-2.2-1.56.902-1.887-1.006z" fill="#EF9E25"/><path fill-rule="evenodd" clip-rule="evenodd" d="M6.076 15.416V2.798h2.118v12.618H6.076zm2.118 2.558v3.883H6.076v-3.883h2.118z" fill="#EF9E25"/></symbol><symbol id="icon--euro" viewBox="0 0 12 19"><path opacity=".9" d="M9.477 11.953H5.55c.039 1.149.344 2.012.914 2.59.578.578 1.473.867 2.683.867.82 0 1.563-.12 2.227-.363l.422 2.836c-.969.226-1.969.34-3 .34-2.055 0-3.684-.551-4.887-1.653-1.195-1.11-1.824-2.648-1.887-4.617H.043v-1.781h1.98V8.719H.043V6.938h2.004c.133-1.97.816-3.497 2.05-4.583C5.34 1.262 6.985.715 9.032.715c.82 0 1.742.12 2.766.363l-.422 2.848a6.7 6.7 0 0 0-2.168-.375c-2.21 0-3.422 1.129-3.633 3.386h3.903V8.72H5.55v1.453h3.926v1.781z" fill="#C82CFF"/></symbol><symbol id="icon--eye" viewBox="0 0 33 21"><g clip-path="url(#clip0)" fill="#B3B3B3"><path d="M16.4 9.7L20 8.4c.4-.1.6-.6.4-1-.9-1.6-2.7-2.6-4.8-2.3-1.9.3-3.4 1.7-3.8 3.6-.6 3 1.6 5.7 4.5 5.7 1.5 0 2.9-.7 3.7-1.8.3-.3.1-.8-.2-1l-3.4-1.9z"/><path d="M32.5 9.1C29.9 6.4 22.7 0 16.4 0 10.4 0 3.6 5.8.7 8.6h.1c-1.6 1.6.1 3.3.1 3.3 3 2.9 9.7 8.5 15.6 8.5 6.3 0 13.4-6.4 16.1-9 .2-.6.5-1.4-.1-2.3zm-14.5 9a8.06 8.06 0 0 1-9.5-9.5c.6-3.2 3.2-5.8 6.4-6.4a8.06 8.06 0 0 1 9.5 9.5c-.7 3.3-3.3 5.8-6.4 6.4z"/></g></symbol><symbol id="icon--fb" viewBox="0 0 41 41"><path d="M20.491 0C9.142 0 0 9.146 0 20.5S9.142 41 20.491 41c11.35 0 20.492-9.146 20.492-20.5S31.84 0 20.49 0zm6.62 11.354H23.96c-1.103 0-1.26.473-1.26 1.577v2.68h4.413l-.473 4.731h-3.94v14.35h-5.676V20.5h-3.152v-4.889h2.995v-3.784c0-3.627 1.891-5.52 6.147-5.52h3.94v5.047h.159z" fill="#D0D0D0"/></symbol><symbol id="icon--inst" viewBox="0 0 42 41"><path d="M31.236 12.615c-.315-.63-.472-1.103-.945-1.576-.473-.474-.946-.789-1.576-.947-.473-.157-1.104-.473-2.523-.473H15.473c-1.26 0-2.048.316-2.521.473-.63.316-1.103.473-1.576.947-.473.473-.788.946-.946 1.576-.158.473-.473 1.104-.473 2.524V25.861c0 1.261.315 2.05.473 2.523.315.63.473 1.103.946 1.577.473.473.945.788 1.576.946.473.157 1.103.473 2.522.473h10.718c1.261 0 2.05-.316 2.523-.473.63-.316 1.103-.473 1.576-.946.473-.474.788-.947.945-1.577.158-.473.473-1.104.473-2.523V20.5v-5.361c-.157-1.42-.315-2.05-.473-2.524zM20.834 27.44c-3.783 0-6.935-3.154-6.935-6.939s3.152-6.938 6.935-6.938c3.783 0 6.936 3.153 6.936 6.938-.158 3.785-3.153 6.939-6.936 6.939zm7.093-12.458c-.945 0-1.576-.789-1.576-1.577 0-.946.788-1.577 1.576-1.577.946 0 1.577.788 1.577 1.577 0 .788-.63 1.577-1.577 1.577z" fill="#D0D0D0"/><path d="M20.833 0C9.484 0 .342 9.146.342 20.5S9.484 41 20.833 41c11.35 0 20.491-9.146 20.491-20.5S32.024 0 20.834 0zm13.24 26.02c0 1.419-.315 2.365-.63 3.31-.315.947-.788 1.578-1.576 2.366-.788.789-1.419 1.262-2.364 1.577a8.792 8.792 0 0 1-3.31.63c-1.42 0-1.892.159-5.518.159-3.625 0-4.098 0-5.516-.158-1.419 0-2.365-.316-3.31-.63-.946-.316-1.577-.79-2.365-1.578-.788-.788-1.26-1.42-1.576-2.365a8.802 8.802 0 0 1-.63-3.312c0-1.419-.158-1.892-.158-5.519 0-3.627 0-4.1.157-5.52 0-1.418.316-2.365.63-3.31.316-.947.789-1.578 1.577-2.366.788-.789 1.419-1.262 2.364-1.577a8.793 8.793 0 0 1 3.31-.63c1.42 0 1.892-.159 5.518-.159 3.625 0 4.098 0 5.516.158 1.419 0 2.365.316 3.31.63.946.316 1.577.79 2.365 1.578.788.788 1.26 1.42 1.576 2.365.315.789.63 1.893.63 3.312 0 1.419.158 1.892.158 5.519 0 3.627-.157 4.1-.157 5.52z" fill="#D0D0D0"/><path d="M20.833 24.915a4.414 4.414 0 0 0 4.414-4.415 4.414 4.414 0 1 0-4.414 4.415z" fill="#D0D0D0"/></symbol><symbol id="icon--logout" viewBox="0 0 30 22"><path d="M23.864 7.53l2.334 2.507H11.16c-.692 0-1.21.519-1.21 1.21s.518 1.21 1.21 1.21h14.95l-2.333 2.506c-.432.519-.432 1.21.086 1.642.519.432 1.21.432 1.642-.087l4.148-4.493c.173-.26.346-.519.346-.778 0-.26-.086-.605-.346-.778l-4.061-4.58a1.127 1.127 0 0 0-1.642-.087c-.519.433-.519 1.21-.087 1.729z" fill="#B3B3B3"/><path d="M20.407 15.827v4.58H2V2h18.407v4.407" stroke="#B3B3B3" stroke-width="3" stroke-miterlimit="10" stroke-linecap="round" stroke-linejoin="round"/></symbol><symbol id="icon--mail" viewBox="0 0 27 20"><g clip-path="url(#clip0)"><path d="M25.4 0h-24C.6 0 0 .6 0 1.4V18c0 .8.6 1.4 1.4 1.4h24c.8 0 1.4-.6 1.4-1.4V1.4c0-.8-.6-1.4-1.4-1.4zM13.2 8.7L6.8 4.4c-.4-.2-.2-.9.2-.9h12.8c.5 0 .7.6.3.9l-6.4 4.3c-.2.1-.4.1-.5 0zM3.5 7.4c0-.4.5-.6.8-.4l9.1 6.1.1-.1.1.1 9-6.1c.3-.2.7 0 .7.4v8.1c0 .3-.2.5-.5.5H4c-.3 0-.5-.2-.5-.5V7.4z" fill="#B3B3B3"/></g></symbol><symbol id="icon--options" viewBox="0 0 29 29"><path d="M27.424 11.55l-2.252-.643a2.12 2.12 0 0 1-1.394-2.896l.858-2.145c.75-1.93-1.287-3.647-3.11-2.681l-2.039 1.18c-1.072.643-2.466.214-3.003-.966l-.965-2.145c-.858-1.823-3.54-1.609-4.076.322L10.8 3.828c-.215 1.18-1.61 1.823-2.789 1.394l-2.145-.858c-1.93-.75-3.647 1.287-2.681 3.11l1.18 2.039c.643 1.072.214 2.466-.966 3.003l-2.145.965c-1.823.858-1.609 3.54.322 4.076l2.252.643a2.12 2.12 0 0 1 1.394 2.896l-.858 2.145c-.75 1.716 1.287 3.54 3.11 2.467l2.039-1.072c1.072-.644 2.466-.215 3.003.965l.965 2.145c.858 1.823 3.54 1.609 4.076-.322l.643-2.252a2.12 2.12 0 0 1 2.896-1.394l2.145.858c1.93.75 3.647-1.287 2.682-3.11l-1.287-2.039c-.644-1.072-.215-2.466.965-3.003l2.145-.965c1.823-.75 1.609-3.432-.322-3.969zm-7.722 2.575c.214 2.895-1.93 5.362-4.827 5.577-2.896.214-5.362-1.93-5.577-4.827-.214-2.896 1.93-5.362 4.827-5.577 2.788-.214 5.362 1.93 5.577 4.827z" fill="#B3B3B3"/></symbol><symbol id="icon--pencil" viewBox="0 0 24 24"><path fill="#C4C4C4" d="M13.82 4.397l5.652 5.653-8.166 8.167-5.653-5.654zM5.867 20.382a2 2 0 0 1-2.38-2.379l.91-4.184 5.653 5.654-4.183.91zM16.803 1.414a2 2 0 0 1 2.828 0l2.825 2.825a2 2 0 0 1 0 2.829l-1.727 1.726-5.653-5.653 1.727-1.727z"/></symbol><symbol id="icon--pins" viewBox="0 0 41 41"><path d="M20.509 0C9.159 0 .018 9.146.018 20.5S9.16 41 20.508 41C31.859 41 41 31.854 41 20.5S31.858 0 20.51 0zm2.207 26.808c-1.734 0-3.468-.947-3.941-2.05l-1.103 4.415c-.63 2.523-2.838 5.204-2.995 5.362-.158.157-.316.157-.316-.158 0-.316-.63-3.627 0-6.15.316-1.262 2.05-8.83 2.05-8.83s-.473-1.105-.473-2.524c0-2.365 1.418-4.258 3.152-4.258 1.419 0 2.207 1.104 2.207 2.524 0 1.419-.946 3.784-1.419 5.834-.473 1.735.946 3.154 2.522 3.154 3.153 0 5.202-3.942 5.202-8.673 0-3.627-2.364-6.308-6.778-6.308-4.886 0-8.039 3.627-8.039 7.885 0 1.419.473 2.365 1.104 3.154.315.315.315.473.157.946-.157.315-.315.946-.315 1.261-.158.473-.473.631-.788.473-2.207-.946-3.31-3.469-3.31-6.15 0-4.573 3.94-10.25 11.664-10.25 6.147 0 10.246 4.574 10.246 9.304 0 6.308-3.626 11.039-8.827 11.039z" fill="#D0D0D0"/></symbol><symbol id="icon--rub" viewBox="0 0 17 34"><path opacity=".9" d="M10.219 19.727H6.492V22H2.977v-2.273H.597v-2.848h2.38v-.89H.597V13.14h2.38V4.937h6.632c1.282 0 2.407.231 3.375.692.97.46 1.72 1.121 2.25 1.98.54.852.809 1.825.809 2.918 0 1.688-.574 3.02-1.723 3.996-1.14.977-2.73 1.465-4.77 1.465H6.493v.89h3.727v2.849zM6.492 13.14h3.035c1.97 0 2.954-.864 2.954-2.59 0-.82-.25-1.48-.75-1.98-.5-.508-1.192-.766-2.075-.774H6.492v5.344z" fill="#7BA5DC"/></symbol><symbol id="icon--tw" viewBox="0 0 42 41"><path d="M21.324 0C9.975 0 .833 9.146.833 20.5S9.975 41 21.324 41c11.35 0 20.492-9.146 20.492-20.5S32.516 0 21.324 0zm10.719 15.139v.63c0 7.727-5.832 15.77-15.763 15.77-2.995 0-5.99-.789-8.511-2.524v-.157l.157-.158h1.261c2.365 0 4.571-.788 6.463-2.05-2.207-.158-4.256-1.735-4.887-3.942v-.158h.158a3.84 3.84 0 0 0 1.892 0c-2.365-.788-3.941-2.838-3.941-5.361v-.158h.158c.63.315 1.26.63 1.891.63-1.261-1.103-2.05-2.68-2.05-4.415 0-.946.316-2.05.789-2.838h.315c2.68 3.311 6.778 5.361 11.034 5.677 0-.316-.158-.789-.158-1.104a5.652 5.652 0 0 1 5.675-5.677c1.576 0 2.995.63 4.098 1.735 1.261-.316 2.365-.631 3.31-1.262h.158v.158c-.315 1.104-1.103 2.05-2.05 2.838.947-.158 1.735-.473 2.523-.788h.157v.157c-.63 1.262-1.576 2.208-2.68 2.997z" fill="#D0D0D0"/></symbol><symbol id="icon--vemo" viewBox="0 0 42 41"><path d="M21 0C9.651 0 .51 9.146.51 20.5S9.65 41 21 41c11.35 0 20.491-9.146 20.491-20.5S32.35 0 21.001 0zm7.566 24.758c-3.468 4.573-6.462 6.78-8.827 6.78-1.419 0-2.68-1.419-3.783-4.1-.63-2.523-1.419-5.046-2.05-7.569-.787-2.68-1.575-4.1-2.521-4.1-.158 0-.788.473-2.05 1.262l-1.26-1.577 3.783-3.312c1.734-1.419 2.995-2.207 3.783-2.365 2.049-.158 3.152 1.104 3.625 4.1.473 3.154.788 5.046 1.104 5.835.63 2.68 1.26 3.942 1.891 3.942.473 0 1.261-.789 2.364-2.523 1.104-1.735 1.577-2.996 1.734-3.785.158-1.42-.473-2.207-1.734-2.207-.63 0-1.26.157-1.891.473 1.261-4.1 3.625-6.15 7.25-5.993 2.68 0 3.784 1.735 3.784 5.046-.158 2.366-1.892 5.835-5.202 10.093z" fill="#D0D0D0"/></symbol></svg>