<svg width="74" height="70" viewBox="0 0 74 70" fill="none" xmlns="http://www.w3.org/2000/svg">
<path d="M17.9066 32.4529L14.2866 26.1278C12.5926 23.1673 10.1719 20.234 11.0936 16.6172C11.8703 13.5671 14.7505 11.1706 17.8891 10.9624C19.7132 10.8394 21.3791 11.5088 22.835 12.5656L26.6246 15.3338C28.9443 17.0284 32.827 15.802 34.1116 13.3712C35.8628 10.0567 34.0334 7.32369 31.3878 5.32513C27.5296 2.41029 23.5335 0.116547 18.5744 0.00410461C11.7737 -0.149635 4.92544 4.03286 1.93715 10.1489C-0.874542 15.9004 -0.596008 22.251 2.57856 27.8066C3.80077 29.9466 5.04318 32.0761 6.27593 34.2099C11.5238 43.3614 16.7995 52.4978 22.1031 61.6188C25.8022 67.8324 32.6452 70.8667 39.7227 69.7844C44.8777 68.9938 49.1049 65.6063 51.6724 61.1752C53.0548 58.7916 54.4313 56.4059 55.802 54.0181L68.4054 32.2052C69.4457 30.4043 70.5862 28.6262 71.5035 26.7586C74.9786 19.6814 73.8539 10.4713 67.5496 5.30667C62.7214 1.35346 55.9373 -0.165443 49.988 2.09228C45.701 3.72012 42.5678 6.63056 40.2525 10.5486L22.553 40.5052L28.8353 51.3897L47.0129 20.624C48.0216 18.9171 49.0232 17.2058 50.0389 15.5033C50.6953 14.4017 51.6021 13.4055 52.7355 12.7633C54.0746 12.0034 55.6483 11.8532 57.1525 12.093C58.3046 12.2851 59.3892 12.766 60.3051 13.4907C61.5273 14.4913 62.3155 15.9847 62.5246 17.5493C62.8242 19.7886 61.8876 21.6044 60.8051 23.4783C54.5253 34.354 48.3932 45.3307 41.9589 56.116C40.8474 57.9731 38.9187 59.1828 36.7221 59.1828C35.452 59.1817 34.2151 58.7772 33.1899 58.0276C31.9457 57.1139 31.3535 55.7488 30.6067 54.4565L17.9066 32.4529Z" fill="#EFEFEF"/>
</svg>
