<svg width="29" height="29" viewBox="0 0 29 29" fill="none" xmlns="http://www.w3.org/2000/svg">
<path d="M27.4242 11.5505L25.1719 10.907C23.9921 10.5852 23.2413 9.29813 23.7776 8.01107L24.6356 5.86597C25.3864 3.93538 23.3485 2.2193 21.5252 3.1846L19.4874 4.3644C18.4148 5.00793 17.0205 4.57891 16.4842 3.39911L15.5189 1.25401C14.6609 -0.569328 11.9795 -0.354818 11.4432 1.57577L10.7997 3.82813C10.5852 5.00793 9.19088 5.65146 8.01107 5.22244L5.86597 4.3644C3.93538 3.61362 2.2193 5.65146 3.1846 7.4748L4.3644 9.51264C5.00793 10.5852 4.57891 11.9795 3.39911 12.5158L1.25401 13.4811C-0.569328 14.3391 -0.354818 17.0205 1.57577 17.5568L3.82813 18.2003C5.00793 18.5221 5.75872 19.8091 5.22244 21.0962L4.3644 23.2413C3.61362 24.9574 5.65146 26.7807 7.4748 25.7081L9.51264 24.6356C10.5852 23.9921 11.9795 24.4211 12.5158 25.6009L13.4811 27.746C14.3391 29.5693 17.0205 29.3548 17.5568 27.4242L18.2003 25.1719C18.5221 23.9921 19.8091 23.2413 21.0962 23.7776L23.2413 24.6356C25.1719 25.3864 26.888 23.3485 25.9227 21.5252L24.6356 19.4874C23.9921 18.4148 24.4211 17.0205 25.6009 16.4842L27.746 15.5189C29.5693 14.7681 29.3548 12.0868 27.4242 11.5505ZM19.7019 14.1246C19.9164 17.0205 17.7713 19.4874 14.8754 19.7019C11.9795 19.9164 9.51264 17.7713 9.29813 14.8754C9.08362 11.9795 11.2287 9.51264 14.1246 9.29813C16.9132 9.08362 19.4874 11.2287 19.7019 14.1246Z" fill="#B3B3B3"/>
</svg>
