<svg width="30" height="30" viewBox="0 0 30 30" fill="none" xmlns="http://www.w3.org/2000/svg">
<path opacity="0.9" d="M16.2188 21.7266H12.4922V24H8.97656V21.7266H6.59766V18.8789H8.97656V17.9883H6.59766V15.1406H8.97656V6.9375H15.6094C16.8906 6.9375 18.0156 7.16797 18.9844 7.62891C19.9531 8.08984 20.7031 8.75 21.2344 9.60938C21.7734 10.4609 22.043 11.4336 22.043 12.5273C22.043 14.2148 21.4688 15.5469 20.3203 16.5234C19.1797 17.5 17.5898 17.9883 15.5508 17.9883H12.4922V18.8789H16.2188V21.7266ZM12.4922 15.1406H15.5273C17.4961 15.1406 18.4805 14.2773 18.4805 12.5508C18.4805 11.7305 18.2305 11.0703 17.7305 10.5703C17.2305 10.0625 16.5391 9.80469 15.6562 9.79688H12.4922V15.1406Z" fill="#7BA5DC"/>
</svg>
