<svg width="41" height="41" viewBox="0 0 41 41" fill="none" xmlns="http://www.w3.org/2000/svg">
<path d="M20.5089 0C9.15985 0 0.0175781 9.14615 0.0175781 20.5C0.0175781 31.8538 9.15985 41 20.5089 41C31.8579 41 41.0002 31.8538 41.0002 20.5C41.0002 9.14615 31.8579 0 20.5089 0ZM22.7157 26.8077C20.9818 26.8077 19.2479 25.8615 18.775 24.7577C18.775 24.7577 17.8293 28.5423 17.6716 29.1731C17.0411 31.6962 14.8344 34.3769 14.6767 34.5346C14.5191 34.6923 14.3615 34.6923 14.3615 34.3769C14.3615 34.0615 13.731 30.75 14.3615 28.2269C14.6768 26.9654 16.4106 19.3962 16.4106 19.3962C16.4106 19.3962 15.9378 18.2923 15.9378 16.8731C15.9378 14.5077 17.3564 12.6154 19.0903 12.6154C20.5089 12.6154 21.297 13.7192 21.297 15.1385C21.297 16.5577 20.3513 18.9231 19.8784 20.9731C19.4055 22.7077 20.8242 24.1269 22.4004 24.1269C25.5529 24.1269 27.602 20.1846 27.602 15.4538C27.602 11.8269 25.2377 9.14615 20.8242 9.14615C15.9378 9.14615 12.7852 12.7731 12.7852 17.0308C12.7852 18.45 13.2581 19.3962 13.8886 20.1846C14.2039 20.5 14.2039 20.6577 14.0463 21.1308C13.8886 21.4462 13.731 22.0769 13.731 22.3923C13.5734 22.8654 13.2581 23.0231 12.9429 22.8654C10.7361 21.9192 9.63274 19.3962 9.63274 16.7154C9.63274 12.1423 13.5734 6.46538 21.297 6.46538C27.4444 6.46538 31.5427 11.0385 31.5427 15.7692C31.5427 22.0769 27.9173 26.8077 22.7157 26.8077Z" fill="#D0D0D0"/>
</svg>
