<svg width="12" height="19" viewBox="0 0 12 19" fill="none" xmlns="http://www.w3.org/2000/svg">
<path opacity="0.9" d="M9.47656 11.9531H5.55078C5.58984 13.1016 5.89453 13.9648 6.46484 14.543C7.04297 15.1211 7.9375 15.4102 9.14844 15.4102C9.96875 15.4102 10.7109 15.2891 11.375 15.0469L11.7969 17.8828C10.8281 18.1094 9.82812 18.2227 8.79688 18.2227C6.74219 18.2227 5.11328 17.6719 3.91016 16.5703C2.71484 15.4609 2.08594 13.9219 2.02344 11.9531H0.0429688V10.1719H2.02344V8.71875H0.0429688V6.9375H2.04688C2.17969 4.96875 2.86328 3.44141 4.09766 2.35547C5.33984 1.26172 6.98438 0.714844 9.03125 0.714844C9.85156 0.714844 10.7734 0.835937 11.7969 1.07812L11.375 3.92578C10.6406 3.67578 9.91797 3.55078 9.20703 3.55078C6.99609 3.55078 5.78516 4.67969 5.57422 6.9375H9.47656V8.71875H5.55078V10.1719H9.47656V11.9531Z" fill="#C82CFF"/>
</svg>
