<svg width="41" height="41" viewBox="0 0 41 41" fill="none" xmlns="http://www.w3.org/2000/svg">
<path d="M20.4913 0C9.14227 0 0 9.14615 0 20.5C0 31.8538 9.14227 41 20.4913 41C31.8403 41 40.9826 31.8538 40.9826 20.5C40.9826 9.14615 31.8403 0 20.4913 0ZM27.1116 11.3538C27.1116 11.3538 24.9048 11.3538 23.9591 11.3538C22.8557 11.3538 22.6981 11.8269 22.6981 12.9308C22.6981 13.8769 22.6981 15.6115 22.6981 15.6115H27.1116L26.6387 20.3423H22.6981V34.6923H17.0235V20.5H13.871V15.6115H16.8659C16.8659 15.6115 16.8659 14.9808 16.8659 11.8269C16.8659 8.2 18.7574 6.30769 23.0133 6.30769C23.6438 6.30769 26.9539 6.30769 26.9539 6.30769V11.3538H27.1116Z" fill="#D0D0D0"/>
</svg>
