<svg width="42" height="41" viewBox="0 0 42 41" fill="none" xmlns="http://www.w3.org/2000/svg">
<path d="M31.2365 12.6154C30.9212 11.9846 30.7636 11.5116 30.2907 11.0385C29.8179 10.5654 29.345 10.25 28.7145 10.0923C28.2416 9.93465 27.6111 9.61926 26.1925 9.61926C24.7738 9.61926 24.301 9.61926 20.8332 9.61926C17.2078 9.61926 16.8926 9.61926 15.4739 9.61926C14.2129 9.61926 13.4248 9.93465 12.9519 10.0923C12.3214 10.4077 11.8486 10.5654 11.3757 11.0385C10.9028 11.5116 10.5875 11.9846 10.4299 12.6154C10.2723 13.0885 9.95703 13.7193 9.95703 15.1385C9.95703 16.5577 9.95703 17.0308 9.95703 20.5C9.95703 23.9693 9.95703 24.4423 9.95703 25.8616C9.95703 27.1231 10.2723 27.9116 10.4299 28.3846C10.7452 29.0154 10.9028 29.4885 11.3757 29.9616C11.8486 30.4346 12.3214 30.75 12.9519 30.9077C13.4248 31.0654 14.0553 31.3808 15.4739 31.3808C16.8926 31.3808 17.3654 31.3808 20.8332 31.3808C24.4586 31.3808 24.7738 31.3808 26.1925 31.3808C27.4535 31.3808 28.2416 31.0654 28.7145 30.9077C29.345 30.5923 29.8179 30.4346 30.2907 29.9616C30.7636 29.4885 31.0788 29.0154 31.2365 28.3846C31.3941 27.9116 31.7094 27.2808 31.7094 25.8616C31.7094 24.4423 31.7094 23.9693 31.7094 20.5C31.7094 17.0308 31.7094 16.5577 31.7094 15.1385C31.5517 13.7193 31.3941 13.0885 31.2365 12.6154ZM20.8332 27.4385C17.0502 27.4385 13.8977 24.2846 13.8977 20.5C13.8977 16.7154 17.0502 13.5616 20.8332 13.5616C24.6162 13.5616 27.7687 16.7154 27.7687 20.5C27.6111 24.2846 24.6162 27.4385 20.8332 27.4385ZM27.9263 14.9808C26.9806 14.9808 26.3501 14.1923 26.3501 13.4039C26.3501 12.4577 27.1382 11.827 27.9263 11.827C28.8721 11.827 29.5026 12.6154 29.5026 13.4039C29.5026 14.1923 28.8721 14.9808 27.9263 14.9808Z" fill="#D0D0D0"/>
<path d="M20.8331 0C9.48408 0 0.341797 9.14615 0.341797 20.5C0.341797 31.8538 9.48408 41 20.8331 41C32.1821 41 41.3244 31.8538 41.3244 20.5C41.3244 9.14615 32.0245 0 20.8331 0ZM34.0736 26.0192C34.0736 27.4385 33.7584 28.3846 33.4431 29.3308C33.1279 30.2769 32.655 30.9077 31.8669 31.6962C31.0788 32.4846 30.4483 32.9577 29.5025 33.2731C28.7144 33.5885 27.611 33.9038 26.1924 33.9038C24.7737 33.9038 24.3009 34.0615 20.6755 34.0615C17.0501 34.0615 16.5772 34.0615 15.1586 33.9038C13.74 33.9038 12.7942 33.5885 11.8484 33.2731C10.9027 32.9577 10.2722 32.4846 9.48406 31.6962C8.69594 30.9077 8.22306 30.2769 7.90781 29.3308C7.59256 28.5423 7.27732 27.4385 7.27732 26.0192C7.27732 24.6 7.11968 24.1269 7.11968 20.5C7.11968 16.8731 7.11969 16.4 7.27732 14.9808C7.27732 13.5615 7.59256 12.6154 7.90781 11.6692C8.22306 10.7231 8.69594 10.0923 9.48406 9.30385C10.2722 8.51538 10.9027 8.04231 11.8484 7.72692C12.6366 7.41154 13.74 7.09615 15.1586 7.09615C16.5772 7.09615 17.0501 6.93846 20.6755 6.93846C24.3009 6.93846 24.7737 6.93846 26.1924 7.09615C27.611 7.09615 28.5568 7.41154 29.5025 7.72692C30.4483 8.04231 31.0788 8.51538 31.8669 9.30385C32.655 10.0923 33.1279 10.7231 33.4431 11.6692C33.7584 12.4577 34.0736 13.5615 34.0736 14.9808C34.0736 16.4 34.2313 16.8731 34.2313 20.5C34.2313 24.1269 34.0736 24.6 34.0736 26.0192Z" fill="#D0D0D0"/>
<path d="M20.833 24.9154C23.2705 24.9154 25.2465 22.9385 25.2465 20.5C25.2465 18.0614 23.2705 16.0846 20.833 16.0846C18.3954 16.0846 16.4194 18.0614 16.4194 20.5C16.4194 22.9385 18.3954 24.9154 20.833 24.9154Z" fill="#D0D0D0"/>
</svg>
