<svg width="42" height="41" viewBox="0 0 42 41" fill="none" xmlns="http://www.w3.org/2000/svg">
<path d="M21.3243 0C9.97528 0 0.833008 9.14615 0.833008 20.5C0.833008 31.8538 9.97528 41 21.3243 41C32.6733 41 41.8156 31.8538 41.8156 20.5C41.8156 9.14615 32.5157 0 21.3243 0ZM32.0428 15.1385C32.0428 15.2962 32.0428 15.6115 32.0428 15.7692C32.0428 23.4962 26.2107 31.5385 16.2803 31.5385C13.2854 31.5385 10.2905 30.75 7.76852 29.0154V28.8577L7.92615 28.7C8.39903 28.7 8.71428 28.7 9.18715 28.7C11.5515 28.7 13.7583 27.9115 15.6498 26.65C13.443 26.4923 11.3939 24.9154 10.7634 22.7077V22.55H10.921C11.5515 22.7077 12.182 22.7077 12.8125 22.55C10.4482 21.7615 8.8719 19.7115 8.8719 17.1885V17.0308H9.02952C9.66003 17.3462 10.2905 17.6615 10.921 17.6615C9.66003 16.5577 8.8719 14.9808 8.8719 13.2462C8.8719 12.3 9.18715 11.1962 9.66003 10.4077C9.66003 10.4077 9.66003 10.4077 9.81765 10.4077H9.97528C12.6549 13.7192 16.7532 15.7692 21.0091 16.0846C21.0091 15.7692 20.8514 15.2962 20.8514 14.9808C20.8514 11.8269 23.3734 9.30385 26.5259 9.30385C28.1022 9.30385 29.5208 9.93462 30.6242 11.0385C31.8852 10.7231 32.9886 10.4077 33.9343 9.77692H34.092V9.93462C33.7767 11.0385 32.9886 11.9846 32.0428 12.7731C32.9886 12.6154 33.7767 12.3 34.5648 11.9846H34.7225V12.1423C34.092 13.4038 33.1462 14.35 32.0428 15.1385Z" fill="#D0D0D0"/>
</svg>
