<svg width="14" height="24" viewBox="0 0 14 24" fill="none" xmlns="http://www.w3.org/2000/svg">
<path fill-rule="evenodd" clip-rule="evenodd" d="M3 0H5V2.9375H6.5C6.67004 2.9375 6.83671 2.94019 7 2.94556V0H9V3.18151C9.88723 3.37888 10.6242 3.69598 11.2109 4.13281C12.2812 4.92188 12.8164 6.08203 12.8164 7.61328C12.8164 8.44922 12.6016 9.1875 12.1719 9.82812C11.7422 10.4609 11.1445 10.9258 10.3789 11.2227C11.2539 11.4414 11.9414 11.8828 12.4414 12.5469C12.9492 13.2109 13.2031 14.0234 13.2031 14.9844C13.2031 16.625 12.6797 17.8672 11.6328 18.7109C10.9466 19.264 10.069 19.6392 9 19.8364V23H7V20H5V24H3V20H0.523438V2.9375H3V0ZM4.03906 12.5703V17.1758H7.05078C7.87891 17.1758 8.52344 16.9805 8.98438 16.5898C9.45312 16.1914 9.6875 15.6445 9.6875 14.9492C9.6875 13.3867 8.87891 12.5938 7.26172 12.5703H4.03906ZM4.03906 10.0859H6.64062C8.41406 10.0547 9.30078 9.34766 9.30078 7.96484C9.30078 7.19141 9.07422 6.63672 8.62109 6.30078C8.17578 5.95703 7.46875 5.78516 6.5 5.78516H4.03906V10.0859Z" fill="#39DEE4"/>
</svg>
