<svg width="30" height="30" viewBox="0 0 30 30" fill="none" xmlns="http://www.w3.org/2000/svg">
<path opacity="0.9" d="M17.2578 19.5117C17.2578 18.8711 17.0781 18.3633 16.7188 17.9883C16.3672 17.6055 15.7656 17.2539 14.9141 16.9336C14.0625 16.6133 13.3281 16.2969 12.7109 15.9844C12.0938 15.6641 11.5625 15.3008 11.1172 14.8945C10.6797 14.4805 10.3359 13.9961 10.0859 13.4414C9.84375 12.8867 9.72266 12.2266 9.72266 11.4609C9.72266 10.1406 10.1445 9.05859 10.9883 8.21484C11.832 7.37109 12.9531 6.87891 14.3516 6.73828V4.23047H16.2266V6.77344C17.6094 6.96875 18.6914 7.54688 19.4727 8.50781C20.2539 9.46094 20.6445 10.6992 20.6445 12.2227H17.2578C17.2578 11.2852 17.0625 10.5859 16.6719 10.125C16.2891 9.65625 15.7734 9.42188 15.125 9.42188C14.4844 9.42188 13.9883 9.60547 13.6367 9.97266C13.2852 10.332 13.1094 10.832 13.1094 11.4727C13.1094 12.0664 13.2812 12.543 13.625 12.9023C13.9688 13.2617 14.6055 13.6289 15.5352 14.0039C16.4727 14.3789 17.2422 14.7344 17.8438 15.0703C18.4453 15.3984 18.9531 15.7734 19.3672 16.1953C19.7812 16.6094 20.0977 17.0859 20.3164 17.625C20.5352 18.1562 20.6445 18.7773 20.6445 19.4883C20.6445 20.8164 20.2305 21.8945 19.4023 22.7227C18.5742 23.5508 17.4336 24.0391 15.9805 24.1875V26.5195H14.1172V24.1992C12.5156 24.0273 11.2734 23.4609 10.3906 22.5C9.51562 21.5312 9.07812 20.2461 9.07812 18.6445H12.4648C12.4648 19.5742 12.6836 20.2891 13.1211 20.7891C13.5664 21.2812 14.2031 21.5273 15.0312 21.5273C15.7188 21.5273 16.2617 21.3477 16.6602 20.9883C17.0586 20.6211 17.2578 20.1289 17.2578 19.5117Z" fill="#4CB650"/>
</svg>
