<svg width="27" height="20" viewBox="0 0 27 20" fill="none" xmlns="http://www.w3.org/2000/svg">
<g clip-path="url(#clip0)">
<path d="M25.4 0H1.4C0.6 0 0 0.6 0 1.4V18C0 18.8 0.6 19.4 1.4 19.4H25.4C26.2 19.4 26.8 18.8 26.8 18V1.4C26.8 0.6 26.2 0 25.4 0ZM13.2 8.7L6.8 4.4C6.4 4.2 6.6 3.5 7 3.5H19.8C20.3 3.5 20.5 4.1 20.1 4.4L13.7 8.7C13.5 8.8 13.3 8.8 13.2 8.7ZM3.5 7.4C3.5 7 4 6.8 4.3 7L13.4 13.1L13.5 13L13.6 13.1L22.6 7C22.9 6.8 23.3 7 23.3 7.4V15.5C23.3 15.8 23.1 16 22.8 16H4C3.7 16 3.5 15.8 3.5 15.5V7.4Z" fill="#B3B3B3"/>
</g>
<defs>
<clipPath id="clip0">
<rect width="26.8" height="19.5" fill="white"/>
</clipPath>
</defs>
</svg>
