<svg width="17" height="34" viewBox="0 0 17 34" fill="none" xmlns="http://www.w3.org/2000/svg">
<path opacity="0.9" d="M10.2188 19.7266H6.49219V22H2.97656V19.7266H0.597656V16.8789H2.97656V15.9883H0.597656V13.1406H2.97656V4.9375H9.60938C10.8906 4.9375 12.0156 5.16797 12.9844 5.62891C13.9531 6.08984 14.7031 6.75 15.2344 7.60938C15.7734 8.46094 16.043 9.43359 16.043 10.5273C16.043 12.2148 15.4688 13.5469 14.3203 14.5234C13.1797 15.5 11.5898 15.9883 9.55078 15.9883H6.49219V16.8789H10.2188V19.7266ZM6.49219 13.1406H9.52734C11.4961 13.1406 12.4805 12.2773 12.4805 10.5508C12.4805 9.73047 12.2305 9.07031 11.7305 8.57031C11.2305 8.0625 10.5391 7.80469 9.65625 7.79688H6.49219V13.1406Z" fill="#7BA5DC"/>
</svg>
