<svg width="30" height="22" viewBox="0 0 30 22" fill="none" xmlns="http://www.w3.org/2000/svg">
<path d="M23.8643 7.53087L26.1976 10.037H11.1606C10.4692 10.037 9.95068 10.5556 9.95068 11.2469C9.95068 11.9383 10.4692 12.4568 11.1606 12.4568H26.1112L23.7778 14.963C23.3457 15.4815 23.3457 16.1728 23.8643 16.6049C24.3828 17.037 25.0741 17.037 25.5062 16.5185L29.6544 12.0247C29.8272 11.7654 30.0001 11.5062 30.0001 11.2469C30.0001 10.9877 29.9136 10.642 29.6544 10.4691L25.5927 5.88889C25.1606 5.37037 24.3828 5.37037 23.9507 5.80247C23.4322 6.23457 23.4322 7.01235 23.8643 7.53087Z" fill="#B3B3B3"/>
<path d="M20.4074 15.8272V20.4074H2V2H20.4074V6.40741" stroke="#B3B3B3" stroke-width="3" stroke-miterlimit="10" stroke-linecap="round" stroke-linejoin="round"/>
</svg>
