<svg width="30" height="30" viewBox="0 0 30 30" fill="none" xmlns="http://www.w3.org/2000/svg">
<path fill-rule="evenodd" clip-rule="evenodd" d="M15.3975 3L22.2184 15.109L15.3815 19.0607L8 15.1224L15.3975 3ZM11.8028 14.7512L15.3404 16.6386L18.6069 14.7506L15.3415 12.998L11.8028 14.7512ZM18.07 12.0591L15.3804 10.6156L12.2995 12.1419L15.3244 7.18497L18.07 12.0591ZM8.65943 18.8358L9.98657 17.2426L15.3404 20.0991L20.2521 17.2601L21.6355 18.8033L15.3946 27.3061L8.65943 18.8358ZM13.495 21.5146L15.3273 23.819L16.9418 21.6193L15.3815 22.5212L13.495 21.5146Z" fill="#EF9E25"/>
<path fill-rule="evenodd" clip-rule="evenodd" d="M14.0763 18.4157V5.79836H16.1939V18.4157H14.0763ZM16.1939 20.9744V24.8567H14.0763V20.9744H16.1939Z" fill="#EF9E25"/>
</svg>
