<svg width="34" height="34" viewBox="0 0 34 34" fill="none" xmlns="http://www.w3.org/2000/svg">
<g clip-path="url(#clip0)">
<path d="M29.4 8H5.4C4.6 8 4 8.6 4 9.4V26C4 26.8 4.6 27.4 5.4 27.4H29.4C30.2 27.4 30.8 26.8 30.8 26V9.4C30.8 8.6 30.2 8 29.4 8ZM17.2 16.7L10.8 12.4C10.4 12.2 10.6 11.5 11 11.5H23.8C24.3 11.5 24.5 12.1 24.1 12.4L17.7 16.7C17.5 16.8 17.3 16.8 17.2 16.7ZM7.5 15.4C7.5 15 8 14.8 8.3 15L17.4 21.1L17.5 21L17.6 21.1L26.6 15C26.9 14.8 27.3 15 27.3 15.4V23.5C27.3 23.8 27.1 24 26.8 24H8C7.7 24 7.5 23.8 7.5 23.5V15.4Z" fill="#B3B3B3"/>
</g>
<defs>
<clipPath id="clip0">
<rect width="26.8" height="19.5" fill="white" transform="translate(4 8)"/>
</clipPath>
</defs>
</svg>
