<svg width="12" height="23" viewBox="0 0 12 23" fill="none" xmlns="http://www.w3.org/2000/svg">
<path opacity="0.9" d="M8.25781 15.5117C8.25781 14.8711 8.07812 14.3633 7.71875 13.9883C7.36719 13.6055 6.76562 13.2539 5.91406 12.9336C5.0625 12.6133 4.32812 12.2969 3.71094 11.9844C3.09375 11.6641 2.5625 11.3008 2.11719 10.8945C1.67969 10.4805 1.33594 9.99609 1.08594 9.44141C0.84375 8.88672 0.722656 8.22656 0.722656 7.46094C0.722656 6.14062 1.14453 5.05859 1.98828 4.21484C2.83203 3.37109 3.95312 2.87891 5.35156 2.73828V0.230469H7.22656V2.77344C8.60938 2.96875 9.69141 3.54688 10.4727 4.50781C11.2539 5.46094 11.6445 6.69922 11.6445 8.22266H8.25781C8.25781 7.28516 8.0625 6.58594 7.67188 6.125C7.28906 5.65625 6.77344 5.42188 6.125 5.42188C5.48438 5.42188 4.98828 5.60547 4.63672 5.97266C4.28516 6.33203 4.10938 6.83203 4.10938 7.47266C4.10938 8.06641 4.28125 8.54297 4.625 8.90234C4.96875 9.26172 5.60547 9.62891 6.53516 10.0039C7.47266 10.3789 8.24219 10.7344 8.84375 11.0703C9.44531 11.3984 9.95312 11.7734 10.3672 12.1953C10.7812 12.6094 11.0977 13.0859 11.3164 13.625C11.5352 14.1562 11.6445 14.7773 11.6445 15.4883C11.6445 16.8164 11.2305 17.8945 10.4023 18.7227C9.57422 19.5508 8.43359 20.0391 6.98047 20.1875V22.5195H5.11719V20.1992C3.51562 20.0273 2.27344 19.4609 1.39062 18.5C0.515625 17.5312 0.078125 16.2461 0.078125 14.6445H3.46484C3.46484 15.5742 3.68359 16.2891 4.12109 16.7891C4.56641 17.2812 5.20312 17.5273 6.03125 17.5273C6.71875 17.5273 7.26172 17.3477 7.66016 16.9883C8.05859 16.6211 8.25781 16.1289 8.25781 15.5117Z" fill="#4CB650"/>
</svg>
