<svg width="34" height="34" viewBox="0 0 34 34" fill="none" xmlns="http://www.w3.org/2000/svg">
<path d="M25.8643 13.5309L28.1976 16.037H13.1606C12.4692 16.037 11.9507 16.5556 11.9507 17.2469C11.9507 17.9383 12.4692 18.4568 13.1606 18.4568H28.1112L25.7778 20.963C25.3457 21.4815 25.3457 22.1728 25.8643 22.6049C26.3828 23.037 27.0741 23.037 27.5062 22.5185L31.6544 18.0247C31.8272 17.7654 32.0001 17.5062 32.0001 17.2469C32.0001 16.9877 31.9136 16.642 31.6544 16.4691L27.5927 11.8889C27.1606 11.3704 26.3828 11.3704 25.9507 11.8025C25.4322 12.2346 25.4322 13.0123 25.8643 13.5309Z" fill="#B3B3B3"/>
<path d="M22.4074 21.8272V26.4074H4V8H22.4074V12.4074" stroke="#B3B3B3" stroke-width="3" stroke-miterlimit="10" stroke-linecap="round" stroke-linejoin="round"/>
</svg>
