<svg width="42" height="41" viewBox="0 0 42 41" fill="none" xmlns="http://www.w3.org/2000/svg">
<path d="M21.0001 0C9.65106 0 0.508789 9.14615 0.508789 20.5C0.508789 31.8538 9.65106 41 21.0001 41C32.3491 41 41.4914 31.8538 41.4914 20.5C41.4914 9.14615 32.3491 0 21.0001 0ZM28.5661 24.7577C25.0984 29.3308 22.1035 31.5385 19.7391 31.5385C18.3205 31.5385 17.0595 30.1192 15.9561 27.4385C15.3256 24.9154 14.5374 22.3923 13.9069 19.8692C13.1188 17.1885 12.3307 15.7692 11.3849 15.7692C11.2273 15.7692 10.5968 16.2423 9.33582 17.0308L8.07481 15.4538C9.33582 14.35 10.5968 13.2462 11.8578 12.1423C13.5917 10.7231 14.8527 9.93462 15.6408 9.77692C17.69 9.61923 18.7933 10.8808 19.2662 13.8769C19.7391 17.0308 20.0543 18.9231 20.3696 19.7115C21.0001 22.3923 21.6306 23.6538 22.2611 23.6538C22.734 23.6538 23.5221 22.8654 24.6255 21.1308C25.7289 19.3962 26.2017 18.1346 26.3594 17.3462C26.517 15.9269 25.8865 15.1385 24.6255 15.1385C23.995 15.1385 23.3645 15.2962 22.734 15.6115C23.995 11.5115 26.3594 9.46154 29.9847 9.61923C32.6644 9.61923 33.7678 11.3538 33.7678 14.6654C33.6101 17.0308 31.8762 20.5 28.5661 24.7577Z" fill="#D0D0D0"/>
</svg>
