<svg width="30" height="30" viewBox="0 0 30 30" fill="none" xmlns="http://www.w3.org/2000/svg">
<path opacity="0.9" d="M18.4766 16.9531H14.5508C14.5898 18.1016 14.8945 18.9648 15.4648 19.543C16.043 20.1211 16.9375 20.4102 18.1484 20.4102C18.9688 20.4102 19.7109 20.2891 20.375 20.0469L20.7969 22.8828C19.8281 23.1094 18.8281 23.2227 17.7969 23.2227C15.7422 23.2227 14.1133 22.6719 12.9102 21.5703C11.7148 20.4609 11.0859 18.9219 11.0234 16.9531H9.04297V15.1719H11.0234V13.7188H9.04297V11.9375H11.0469C11.1797 9.96875 11.8633 8.44141 13.0977 7.35547C14.3398 6.26172 15.9844 5.71484 18.0312 5.71484C18.8516 5.71484 19.7734 5.83594 20.7969 6.07812L20.375 8.92578C19.6406 8.67578 18.918 8.55078 18.207 8.55078C15.9961 8.55078 14.7852 9.67969 14.5742 11.9375H18.4766V13.7188H14.5508V15.1719H18.4766V16.9531Z" fill="#C82CFF"/>
</svg>
