<svg width="30" height="30" viewBox="0 0 30 30" fill="none" xmlns="http://www.w3.org/2000/svg">
<path fill-rule="evenodd" clip-rule="evenodd" d="M11.4766 3H13.4766V5.9375H14.9766C15.1466 5.9375 15.3133 5.94019 15.4766 5.94556V3H17.4766V6.18151C18.3638 6.37888 19.1008 6.69598 19.6875 7.13281C20.7578 7.92188 21.293 9.08203 21.293 10.6133C21.293 11.4492 21.0781 12.1875 20.6484 12.8281C20.2188 13.4609 19.6211 13.9258 18.8555 14.2227C19.7305 14.4414 20.418 14.8828 20.918 15.5469C21.4258 16.2109 21.6797 17.0234 21.6797 17.9844C21.6797 19.625 21.1562 20.8672 20.1094 21.7109C19.4231 22.264 18.5455 22.6392 17.4766 22.8364V26H15.4766V23H13.4766V27H11.4766V23H9V5.9375H11.4766V3ZM12.5156 15.5703V20.1758H15.5273C16.3555 20.1758 17 19.9805 17.4609 19.5898C17.9297 19.1914 18.1641 18.6445 18.1641 17.9492C18.1641 16.3867 17.3555 15.5938 15.7383 15.5703H12.5156ZM12.5156 13.0859H15.1172C16.8906 13.0547 17.7773 12.3477 17.7773 10.9648C17.7773 10.1914 17.5508 9.63672 17.0977 9.30078C16.6523 8.95703 15.9453 8.78516 14.9766 8.78516H12.5156V13.0859Z" fill="#39DEE4"/>
</svg>
