<svg width="15" height="25" viewBox="0 0 15 25" fill="none" xmlns="http://www.w3.org/2000/svg">
<path fill-rule="evenodd" clip-rule="evenodd" d="M7.39749 0L14.2184 12.109L7.38153 16.0607L0 12.1224L7.39749 0ZM3.80281 11.7512L7.34038 13.6386L10.6069 11.7506L7.34153 9.99803L3.80281 11.7512ZM10.07 9.05911L7.38037 7.61557L4.29954 9.14189L7.32442 4.18497L10.07 9.05911ZM0.659431 15.8358L1.98657 14.2426L7.34038 17.0991L12.2521 14.2601L13.6355 15.8033L7.39461 24.3061L0.659431 15.8358ZM5.49499 18.5146L7.3273 20.819L8.94182 18.6193L7.38153 19.5212L5.49499 18.5146Z" fill="#EF9E25"/>
<path fill-rule="evenodd" clip-rule="evenodd" d="M6.07617 15.4157V2.79836H8.19376V15.4157H6.07617ZM8.19376 17.9744V21.8567H6.07617V17.9744H8.19376Z" fill="#EF9E25"/>
</svg>
