<svg width="34" height="34" viewBox="0 0 34 34" fill="none" xmlns="http://www.w3.org/2000/svg">
<path d="M29.4242 14.5505L27.1719 13.907C25.9921 13.5852 25.2413 12.2981 25.7776 11.0111L26.6356 8.86597C27.3864 6.93538 25.3485 5.2193 23.5252 6.1846L21.4874 7.3644C20.4148 8.00793 19.0205 7.57891 18.4842 6.39911L17.5189 4.25401C16.6609 2.43067 13.9795 2.64518 13.4432 4.57577L12.7997 6.82813C12.5852 8.00793 11.1909 8.65146 10.0111 8.22244L7.86597 7.3644C5.93538 6.61362 4.2193 8.65146 5.1846 10.4748L6.3644 12.5126C7.00793 13.5852 6.57891 14.9795 5.39911 15.5158L3.25401 16.4811C1.43067 17.3391 1.64518 20.0205 3.57577 20.5568L5.82813 21.2003C7.00793 21.5221 7.75872 22.8091 7.22244 24.0962L6.3644 26.2413C5.61362 27.9574 7.65146 29.7807 9.4748 28.7081L11.5126 27.6356C12.5852 26.9921 13.9795 27.4211 14.5158 28.6009L15.4811 30.746C16.3391 32.5693 19.0205 32.3548 19.5568 30.4242L20.2003 28.1719C20.5221 26.9921 21.8091 26.2413 23.0962 26.7776L25.2413 27.6356C27.1719 28.3864 28.888 26.3485 27.9227 24.5252L26.6356 22.4874C25.9921 21.4148 26.4211 20.0205 27.6009 19.4842L29.746 18.5189C31.5693 17.7681 31.3548 15.0868 29.4242 14.5505ZM21.7019 17.1246C21.9164 20.0205 19.7713 22.4874 16.8754 22.7019C13.9795 22.9164 11.5126 20.7713 11.2981 17.8754C11.0836 14.9795 13.2287 12.5126 16.1246 12.2981C18.9132 12.0836 21.4874 14.2287 21.7019 17.1246Z" fill="#B3B3B3"/>
</svg>
