<svg width="256" height="70" viewBox="0 0 256 70" fill="none" xmlns="http://www.w3.org/2000/svg">
<path d="M17.9069 32.4529L14.2868 26.1278C12.5928 23.1673 10.1721 20.234 11.0938 16.6172C11.8706 13.5671 14.7508 11.1706 17.8893 10.9624C19.7134 10.8394 21.3793 11.5088 22.8353 12.5656L26.6249 15.3338C28.9445 17.0284 32.8273 15.802 34.1119 13.3712C35.863 10.0567 34.0337 7.32369 31.388 5.32513C27.5299 2.41029 23.5338 0.116547 18.5747 0.00410461C11.7739 -0.149635 4.92569 4.03286 1.93739 10.1489C-0.874298 15.9004 -0.595764 22.251 2.5788 27.8066C3.80101 29.9466 5.04343 32.0761 6.27618 34.2099C11.5241 43.3614 16.7998 52.4978 22.1033 61.6188C25.8025 67.8324 32.6454 70.8667 39.7229 69.7844C44.878 68.9938 49.1052 65.6063 51.6726 61.1752C53.055 58.7916 54.4316 56.4059 55.8023 54.0181L68.4057 32.2052C69.446 30.4043 70.5865 28.6262 71.5038 26.7585C74.9788 19.6814 73.8542 10.4713 67.5498 5.30667C62.7217 1.35346 55.9376 -0.165443 49.9882 2.09228C45.7013 3.72012 42.568 6.63056 40.2528 10.5486L22.5532 40.5052L28.8356 51.3897L47.0131 20.624C48.0218 18.9171 49.0235 17.2058 50.0392 15.5033C50.6955 14.4017 51.6023 13.4055 52.7358 12.7633C54.0748 12.0034 55.6485 11.8532 57.1528 12.093C58.3049 12.2851 59.3895 12.766 60.3054 13.4907C61.5276 14.4913 62.3157 15.9847 62.5248 17.5493C62.8245 19.7886 61.8878 21.6044 60.8053 23.4783C54.5256 34.354 48.3935 45.3307 41.9591 56.116C40.8476 57.9731 38.919 59.1828 36.7223 59.1828C35.4523 59.1817 34.2154 58.7772 33.1902 58.0276C31.946 57.1139 31.3538 55.7488 30.6069 54.4565L17.9069 32.4529Z" fill="#6ED3CF"/>
<path d="M93.396 21.304H96.996L101.964 38.728C102.132 39.352 102.312 40.06 102.504 40.852C102.696 41.644 102.828 42.196 102.9 42.508H103.08L103.8 38.728L107.616 21.304H112.512L116.472 38.728L117.228 42.508H117.408C117.48 42.196 117.612 41.644 117.804 40.852C118.02 40.06 118.212 39.352 118.38 38.728L123.168 21.304H126.588L119.46 46H114.744L110.856 28.684C110.664 27.82 110.484 27.004 110.316 26.236C110.172 25.444 110.076 24.916 110.028 24.652H109.848C109.8 24.94 109.704 25.492 109.56 26.308C109.44 27.1 109.296 27.892 109.128 28.684L105.24 46H100.524L93.396 21.304ZM136.803 46.432C133.755 46.432 131.487 45.628 129.999 44.02C128.511 42.412 127.767 39.916 127.767 36.532C127.767 33.148 128.511 30.652 129.999 29.044C131.487 27.436 133.755 26.632 136.803 26.632C139.539 26.632 141.579 27.364 142.923 28.828C144.291 30.268 144.975 32.596 144.975 35.812V37.396H131.043C131.163 39.58 131.679 41.2 132.591 42.256C133.527 43.288 134.931 43.804 136.803 43.804C138.315 43.804 139.539 43.456 140.475 42.76C141.411 42.064 141.879 40.996 141.879 39.556H144.975C144.975 41.764 144.207 43.468 142.671 44.668C141.159 45.844 139.203 46.432 136.803 46.432ZM141.663 34.768C141.663 31.096 140.043 29.26 136.803 29.26C135.003 29.26 133.647 29.692 132.735 30.556C131.847 31.42 131.307 32.824 131.115 34.768H141.663ZM148.779 19.972H151.947V46H148.779V19.972ZM164.788 46.432C161.74 46.432 159.472 45.628 157.984 44.02C156.496 42.412 155.752 39.916 155.752 36.532C155.752 33.148 156.496 30.652 157.984 29.044C159.472 27.436 161.74 26.632 164.788 26.632C167.524 26.632 169.564 27.364 170.908 28.828C172.276 30.268 172.96 32.596 172.96 35.812V37.396H159.028C159.148 39.58 159.664 41.2 160.576 42.256C161.512 43.288 162.916 43.804 164.788 43.804C166.3 43.804 167.524 43.456 168.46 42.76C169.396 42.064 169.864 40.996 169.864 39.556H172.96C172.96 41.764 172.192 43.468 170.656 44.668C169.144 45.844 167.188 46.432 164.788 46.432ZM169.648 34.768C169.648 31.096 168.028 29.26 164.788 29.26C162.988 29.26 161.632 29.692 160.72 30.556C159.832 31.42 159.292 32.824 159.1 34.768H169.648ZM183.244 46.432C181.492 46.432 180.028 46.18 178.852 45.676C177.7 45.148 176.848 44.464 176.296 43.624C175.744 42.784 175.468 41.872 175.468 40.888C175.468 40.6 175.468 40.408 175.468 40.312C175.492 40.192 175.504 40.12 175.504 40.096H178.636V40.456C178.636 41.584 179.08 42.436 179.968 43.012C180.856 43.564 182.008 43.84 183.424 43.84C184.648 43.84 185.656 43.6 186.448 43.12C187.264 42.616 187.672 41.92 187.672 41.032C187.672 40.336 187.444 39.772 186.988 39.34C186.532 38.884 185.968 38.536 185.296 38.296C184.624 38.032 183.712 37.756 182.56 37.468C181.168 37.108 180.028 36.748 179.14 36.388C178.276 36.028 177.532 35.5 176.908 34.804C176.308 34.084 176.008 33.16 176.008 32.032C176.008 30.376 176.68 29.068 178.024 28.108C179.392 27.124 181.228 26.632 183.532 26.632C184.972 26.632 186.22 26.872 187.276 27.352C188.332 27.808 189.124 28.432 189.652 29.224C190.204 29.992 190.48 30.856 190.48 31.816L190.444 32.5H187.348V32.176C187.348 31.336 187.012 30.64 186.34 30.088C185.692 29.536 184.636 29.26 183.172 29.26C181.732 29.26 180.724 29.524 180.148 30.052C179.572 30.556 179.284 31.144 179.284 31.816C179.284 32.368 179.488 32.824 179.896 33.184C180.304 33.544 180.808 33.832 181.408 34.048C182.008 34.264 182.848 34.504 183.928 34.768C185.416 35.152 186.628 35.536 187.564 35.92C188.5 36.28 189.292 36.844 189.94 37.612C190.612 38.356 190.948 39.352 190.948 40.6C190.948 42.544 190.24 44.008 188.824 44.992C187.432 45.952 185.572 46.432 183.244 46.432ZM195.196 21.304H207.22C209.692 21.304 211.588 21.988 212.908 23.356C214.228 24.724 214.888 26.548 214.888 28.828C214.888 31.156 214.192 33.028 212.8 34.444C211.432 35.836 209.572 36.532 207.22 36.532H198.616V46H195.196V21.304ZM207.04 33.544C208.384 33.544 209.452 33.124 210.244 32.284C211.036 31.444 211.432 30.304 211.432 28.864C211.432 27.4 211.06 26.272 210.316 25.48C209.572 24.688 208.48 24.292 207.04 24.292H198.616V33.544H207.04ZM223.923 46.432C222.291 46.432 220.839 46.048 219.567 45.28C218.295 44.512 217.659 43.12 217.659 41.104C217.659 38.68 218.739 37.024 220.899 36.136C223.059 35.224 226.179 34.768 230.259 34.768V32.68C230.259 31.576 229.947 30.736 229.323 30.16C228.699 29.56 227.571 29.26 225.939 29.26C224.403 29.26 223.299 29.548 222.627 30.124C221.979 30.7 221.655 31.408 221.655 32.248V32.68H218.595C218.571 32.536 218.559 32.272 218.559 31.888C218.559 30.208 219.255 28.912 220.647 28C222.039 27.088 223.899 26.632 226.227 26.632C228.579 26.632 230.367 27.124 231.591 28.108C232.815 29.092 233.427 30.484 233.427 32.284V42.544C233.427 42.976 233.547 43.3 233.787 43.516C234.027 43.708 234.327 43.804 234.687 43.804H236.127V45.856C235.503 46.144 234.687 46.288 233.679 46.288C232.863 46.288 232.179 46.048 231.627 45.568C231.075 45.064 230.703 44.404 230.511 43.588H230.259C229.611 44.476 228.723 45.172 227.595 45.676C226.491 46.18 225.267 46.432 223.923 46.432ZM224.751 43.804C225.687 43.804 226.575 43.612 227.415 43.228C228.255 42.844 228.939 42.28 229.467 41.536C229.995 40.768 230.259 39.844 230.259 38.764V37.396C227.163 37.396 224.835 37.648 223.275 38.152C221.739 38.632 220.971 39.556 220.971 40.924C220.971 41.956 221.283 42.7 221.907 43.156C222.555 43.588 223.503 43.804 224.751 43.804ZM240.579 52.552C239.523 52.552 238.683 52.456 238.059 52.264V50.212H239.319C241.767 50.212 243.375 48.808 244.143 46L236.835 27.064H240.183L243.711 36.532C244.047 37.42 244.431 38.536 244.863 39.88C245.319 41.2 245.619 42.064 245.763 42.472H245.943C246.063 42.064 246.279 41.296 246.591 40.168C246.927 39.04 247.299 37.828 247.707 36.532L250.731 27.064H253.899L247.671 45.028C246.831 47.428 245.871 49.276 244.791 50.572C243.735 51.892 242.331 52.552 240.579 52.552Z" fill="black"/>
</svg>
