<?xml version="1.0" encoding="UTF-8"?><!DOCTYPE svg PUBLIC "-//W3C//DTD SVG 1.1//EN" "http://www.w3.org/Graphics/SVG/1.1/DTD/svg11.dtd"><svg xmlns="http://www.w3.org/2000/svg"><symbol id="icon--balloon" viewBox="0 0 34 32"><path d="M26.555 0H7.445C3.377 0 0 3.32 0 7.32v8.906c0 4 3.377 7.321 7.445 7.321h.997v8.528c1.382-.754 6.064-5.132 9.594-8.528h8.52c4.067 0 7.444-3.32 7.444-7.32V7.32C34 3.32 30.623 0 26.555 0z" fill="#fff"/></symbol><symbol id="icon--bitcoin" viewBox="0 0 14 24"><path fill-rule="evenodd" clip-rule="evenodd" d="M3 0h2v2.938h1.5c.17 0 .337.002.5.008V0h2v3.182c.887.197 1.624.514 2.21.95 1.071.79 1.606 1.95 1.606 3.481 0 .836-.214 1.574-.644 2.215-.43.633-1.027 1.098-1.793 1.395.875.218 1.562.66 2.062 1.324.508.664.762 1.476.762 2.437 0 1.641-.523 2.883-1.57 3.727-.686.553-1.564.928-2.633 1.125V23H7v-3H5v4H3v-4H.523V2.937H3V0zm1.04 12.57v4.606h3.01c.829 0 1.473-.195 1.934-.586.47-.399.704-.945.704-1.64 0-1.563-.81-2.356-2.426-2.38H4.039zm0-2.484h2.6c1.774-.031 2.66-.738 2.66-2.121 0-.774-.226-1.328-.679-1.664-.445-.344-1.152-.516-2.121-.516H4.04v4.3z" fill="#39DEE4"/></symbol><symbol id="icon--dolar" viewBox="0 0 12 23"><path opacity=".9" d="M8.258 15.512c0-.64-.18-1.149-.54-1.524-.35-.383-.952-.734-1.804-1.054a22.327 22.327 0 0 1-2.203-.95 7.418 7.418 0 0 1-1.594-1.09 4.56 4.56 0 0 1-1.031-1.453C.844 8.887.723 8.227.723 7.461c0-1.32.422-2.402 1.265-3.246.844-.844 1.965-1.336 3.364-1.477V.23h1.875v2.543c1.382.196 2.464.774 3.246 1.735.78.953 1.171 2.191 1.171 3.715H8.259c0-.938-.195-1.637-.586-2.098-.383-.469-.899-.703-1.547-.703-.64 0-1.137.183-1.488.55-.352.36-.528.86-.528 1.5 0 .594.172 1.071.516 1.43.344.36.98.727 1.91 1.102.938.375 1.707.73 2.309 1.066.601.328 1.11.703 1.523 1.125.414.414.73.89.95 1.43.218.531.328 1.152.328 1.863 0 1.328-.415 2.407-1.243 3.235-.828.828-1.968 1.316-3.422 1.465v2.332H5.117V20.2c-1.601-.173-2.844-.74-3.726-1.7-.875-.969-1.313-2.254-1.313-3.855h3.387c0 .93.219 1.644.656 2.144.445.492 1.082.738 1.91.738.688 0 1.23-.18 1.63-.539.398-.367.597-.86.597-1.476z" fill="#4CB650"/></symbol><symbol id="icon--ethereum" viewBox="0 0 15 25"><path fill-rule="evenodd" clip-rule="evenodd" d="M7.397 0l6.821 12.109-6.836 3.952L0 12.122 7.397 0zM3.803 11.751L7.34 13.64l3.267-1.888-3.265-1.753-3.54 1.753zM10.07 9.06L7.38 7.616 4.3 9.142l3.024-4.957 2.746 4.874zM.66 15.836l1.327-1.593 5.353 2.856 4.912-2.839 1.383 1.543-6.24 8.503-6.736-8.47zm4.835 2.679l1.832 2.304 1.615-2.2-1.56.902-1.887-1.006z" fill="#EF9E25"/><path fill-rule="evenodd" clip-rule="evenodd" d="M6.076 15.416V2.798h2.118v12.618H6.076zm2.118 2.558v3.883H6.076v-3.883h2.118z" fill="#EF9E25"/></symbol><symbol id="icon--euro" viewBox="0 0 12 19"><path opacity=".9" d="M9.477 11.953H5.55c.039 1.149.344 2.012.914 2.59.578.578 1.473.867 2.683.867.82 0 1.563-.12 2.227-.363l.422 2.836c-.969.226-1.969.34-3 .34-2.055 0-3.684-.551-4.887-1.653-1.195-1.11-1.824-2.648-1.887-4.617H.043v-1.781h1.98V8.719H.043V6.938h2.004c.133-1.97.816-3.497 2.05-4.583C5.34 1.262 6.985.715 9.032.715c.82 0 1.742.12 2.766.363l-.422 2.848a6.7 6.7 0 0 0-2.168-.375c-2.21 0-3.422 1.129-3.633 3.386h3.903V8.72H5.55v1.453h3.926v1.781z" fill="#C82CFF"/></symbol><symbol id="icon--pencil" viewBox="0 0 24 24"><path fill="#C4C4C4" d="M13.82 4.397l5.652 5.653-8.166 8.167-5.653-5.654zM5.867 20.382a2 2 0 0 1-2.38-2.379l.91-4.184 5.653 5.654-4.183.91zM16.803 1.414a2 2 0 0 1 2.828 0l2.825 2.825a2 2 0 0 1 0 2.829l-1.727 1.726-5.653-5.653 1.727-1.727z"/></symbol><symbol id="icon--rub" viewBox="0 0 17 34"><path opacity=".9" d="M10.219 19.727H6.492V22H2.977v-2.273H.597v-2.848h2.38v-.89H.597V13.14h2.38V4.937h6.632c1.282 0 2.407.231 3.375.692.97.46 1.72 1.121 2.25 1.98.54.852.809 1.825.809 2.918 0 1.688-.574 3.02-1.723 3.996-1.14.977-2.73 1.465-4.77 1.465H6.493v.89h3.727v2.849zM6.492 13.14h3.035c1.97 0 2.954-.864 2.954-2.59 0-.82-.25-1.48-.75-1.98-.5-.508-1.192-.766-2.075-.774H6.492v5.344z" fill="#7BA5DC"/></symbol></svg>