<svg width="33" height="21" viewBox="0 0 33 21" fill="none" xmlns="http://www.w3.org/2000/svg">
<g clip-path="url(#clip0)">
<path d="M16.4001 9.7L20.0001 8.4C20.4001 8.3 20.6001 7.8 20.4001 7.4C19.5001 5.8 17.7001 4.8 15.6001 5.1C13.7001 5.4 12.2001 6.8 11.8001 8.7C11.2001 11.7 13.4001 14.4 16.3001 14.4C17.8001 14.4 19.2001 13.7 20.0001 12.6C20.3001 12.3 20.1001 11.8 19.8001 11.6L16.4001 9.7Z" fill="#B3B3B3"/>
<path d="M32.5001 9.1C29.9001 6.4 22.7001 0 16.4001 0C10.4001 0 3.60009 5.8 0.700094 8.6H0.800094C-0.799906 10.2 0.900094 11.9 0.900094 11.9C3.90009 14.8 10.6001 20.4 16.5001 20.4C22.8001 20.4 29.9001 14 32.6001 11.4C32.8001 10.8 33.1001 10 32.5001 9.1ZM18.0001 18.1C12.3001 19.2 7.40009 14.3 8.50009 8.6C9.10009 5.4 11.7001 2.8 14.9001 2.2C20.6001 1.1 25.5001 6 24.4001 11.7C23.7001 15 21.1001 17.5 18.0001 18.1Z" fill="#B3B3B3"/>
</g>
<defs>
<clipPath id="clip0">
<rect width="32.9" height="20.4" fill="white"/>
</clipPath>
</defs>
</svg>
